<svg xmlns="http://www.w3.org/2000/svg" viewBox="0 0 1600 1000" role="img" aria-label="Star schema data model screenshot placeholder">
  <defs>
    <linearGradient id="bg3" x1="0" y1="0" x2="1" y2="1">
      <stop offset="0%" stop-color="#1A2A4C"/>
      <stop offset="100%" stop-color="#3D5A80"/>
    </linearGradient>
  </defs>

  <rect width="1600" height="1000" fill="url(#bg3)"/>
  <rect x="60" y="60" width="1480" height="880" rx="22" fill="#F8F9FA"/>

  <!-- Relationship lines -->
  <g stroke="#29B6F6" stroke-width="4" fill="none" opacity=".75">
    <path d="M420 300 L690 440"/>
    <path d="M1180 300 L910 440"/>
    <path d="M420 720 L690 570"/>
    <path d="M1180 720 L910 570"/>
  </g>
  <g fill="#29B6F6">
    <circle cx="420" cy="300" r="9"/><circle cx="690" cy="440" r="9"/>
    <circle cx="1180" cy="300" r="9"/><circle cx="910" cy="440" r="9"/>
    <circle cx="420" cy="720" r="9"/><circle cx="690" cy="570" r="9"/>
    <circle cx="1180" cy="720" r="9"/><circle cx="910" cy="570" r="9"/>
  </g>

  <!-- Fact table (centre) -->
  <g>
    <rect x="640" y="380" width="320" height="250" rx="14" fill="#ffffff" stroke="#29B6F6" stroke-width="3"/>
    <rect x="640" y="380" width="320" height="56" rx="14" fill="#29B6F6"/>
    <rect x="640" y="414" width="320" height="22" fill="#29B6F6"/>
    <rect x="670" y="400" width="150" height="16" rx="8" fill="#ffffff" opacity=".9"/>
    <g fill="#6c757d" opacity=".42">
      <rect x="670" y="466" width="210" height="13" rx="6"/>
      <rect x="670" y="500" width="180" height="13" rx="6"/>
      <rect x="670" y="534" width="230" height="13" rx="6"/>
      <rect x="670" y="568" width="160" height="13" rx="6"/>
    </g>
  </g>

  <!-- Dimension tables -->
  <g>
    <rect x="180" y="180" width="290" height="210" rx="14" fill="#ffffff" stroke="#e6e9ef" stroke-width="2"/>
    <rect x="180" y="180" width="290" height="52" rx="14" fill="#1A2A4C"/>
    <rect x="180" y="212" width="290" height="20" fill="#1A2A4C"/>
    <rect x="208" y="198" width="130" height="15" rx="7" fill="#ffffff" opacity=".85"/>
    <g fill="#6c757d" opacity=".38">
      <rect x="208" y="262" width="180" height="13" rx="6"/>
      <rect x="208" y="296" width="150" height="13" rx="6"/>
      <rect x="208" y="330" width="200" height="13" rx="6"/>
    </g>
  </g>
  <g>
    <rect x="1130" y="180" width="290" height="210" rx="14" fill="#ffffff" stroke="#e6e9ef" stroke-width="2"/>
    <rect x="1130" y="180" width="290" height="52" rx="14" fill="#1A2A4C"/>
    <rect x="1130" y="212" width="290" height="20" fill="#1A2A4C"/>
    <rect x="1158" y="198" width="150" height="15" rx="7" fill="#ffffff" opacity=".85"/>
    <g fill="#6c757d" opacity=".38">
      <rect x="1158" y="262" width="170" height="13" rx="6"/>
      <rect x="1158" y="296" width="200" height="13" rx="6"/>
      <rect x="1158" y="330" width="140" height="13" rx="6"/>
    </g>
  </g>
  <g>
    <rect x="180" y="620" width="290" height="210" rx="14" fill="#ffffff" stroke="#e6e9ef" stroke-width="2"/>
    <rect x="180" y="620" width="290" height="52" rx="14" fill="#1A2A4C"/>
    <rect x="180" y="652" width="290" height="20" fill="#1A2A4C"/>
    <rect x="208" y="638" width="140" height="15" rx="7" fill="#ffffff" opacity=".85"/>
    <g fill="#6c757d" opacity=".38">
      <rect x="208" y="702" width="190" height="13" rx="6"/>
      <rect x="208" y="736" width="160" height="13" rx="6"/>
      <rect x="208" y="770" width="210" height="13" rx="6"/>
    </g>
  </g>
  <g>
    <rect x="1130" y="620" width="290" height="210" rx="14" fill="#ffffff" stroke="#e6e9ef" stroke-width="2"/>
    <rect x="1130" y="620" width="290" height="52" rx="14" fill="#1A2A4C"/>
    <rect x="1130" y="652" width="290" height="20" fill="#1A2A4C"/>
    <rect x="1158" y="638" width="160" height="15" rx="7" fill="#ffffff" opacity=".85"/>
    <g fill="#6c757d" opacity=".38">
      <rect x="1158" y="702" width="150" height="13" rx="6"/>
      <rect x="1158" y="736" width="210" height="13" rx="6"/>
      <rect x="1158" y="770" width="175" height="13" rx="6"/>
    </g>
  </g>

  <text x="800" y="978" text-anchor="middle" font-family="Lato, Segoe UI, sans-serif"
        font-size="22" letter-spacing="3" fill="#ffffff" opacity=".55">SCREENSHOT PLACEHOLDER</text>
</svg>
